<?xml version="1.0" encoding="UTF-8"?>
<svg xmlns="http://www.w3.org/2000/svg" xmlns:xlink="http://www.w3.org/1999/xlink" width="858.9pt" height="903.28pt" viewBox="0 0 858.9 903.28" version="1.1">
<defs>
<clipPath id="clip1">
  <path d="M 0 0 L 858.898438 0 L 858.898438 903.28125 L 0 903.28125 Z M 0 0 "/>
</clipPath>
</defs>
<g id="surface1">
<g clip-path="url(#clip1)" clip-rule="nonzero">
<path style=" stroke:none;fill-rule:nonzero;fill:#f5f5f5;fill-opacity:1;" d="M 741.617188 504.277344 C 729.929688 565.300781 686.375 608.265625 624.941406 619.355469 C 612.445313 621.613281 600.21875 625.738281 590.382813 624.824219 C 541.414063 625.1875 495.246094 585.640625 485.949219 538.066406 C 477.957031 497.15625 489.195313 471.488281 527.347656 454.550781 C 579.984375 431.1875 635.664063 421.773438 692.949219 430.988281 C 729.175781 436.816406 748.539063 468.128906 741.617188 504.277344 M 377.472656 527.222656 C 373.761719 552.464844 362.46875 574.054688 345.300781 592.460938 C 321.988281 617.457031 292.847656 626.835938 259.199219 621.960938 C 208.902344 614.675781 165.9375 593.828125 135.328125 551.996094 C 118.992188 529.671875 113.664063 504.21875 119.003906 476.875 C 124.785156 447.269531 144.140625 429.707031 175.082031 426.0625 C 182.929688 425.140625 190.875 425.003906 199.757813 424.445313 C 245.34375 428.933594 291.394531 435.730469 333.679688 457.046875 C 365.617188 473.148438 381.46875 500.039063 377.472656 527.222656 M 858.570313 111.207031 C 854.132813 48.769531 863.957031 68.3125 819.320313 25.863281 C 796.855469 4.5 773.128906 -7.089844 742.269531 5.226563 C 741.089844 5.699219 739.660156 5.558594 738.351563 5.714844 C 675.089844 13.367188 611.878906 21.035156 548.230469 25.488281 C 472.9375 30.757813 397.789063 31.367188 322.578125 26.476563 C 246.238281 21.507813 170.171875 13.804688 94.734375 0.75 C 81.765625 -1.496094 70.902344 1.257813 60.449219 9.800781 C 44.414063 22.90625 28.730469 36.347656 13.671875 50.539063 C 7.40625 56.445313 3.25 63.234375 2.53125 72.195313 C -3.046875 141.820313 1.632813 211.363281 6.5625 280.675781 C 11.671875 352.515625 22.171875 423.820313 36.53125 494.570313 C 54.210938 581.6875 78.109375 666.945313 107.96875 750.597656 C 110.84375 758.648438 115.757813 764.917969 122.46875 770.527344 C 179.078125 817.855469 242.476563 853.316406 311.347656 879.214844 C 375.800781 903.457031 441.113281 912.289063 508.777344 892.050781 C 592.457031 867.027344 667.898438 827.015625 735.589844 771.988281 C 744.542969 764.710938 749.921875 755.789063 753.671875 745.140625 C 792.445313 635.09375 820.824219 522.585938 838.28125 407.089844 C 851.667969 318.539063 856.925781 229.59375 858.664063 140.277344 C 858.664063 130.585938 859.253906 120.847656 858.570313 111.207031 "/>
</g>
</g>
</svg>
